<?xml version="1.0" encoding="UTF-8" standalone="no"?>
<svg width="128" height="128" viewBox="0 0 128 128" fill="none" xmlns="http://www.w3.org/2000/svg">
  <!-- Background circle -->
  <circle cx="64" cy="64" r="60" fill="#4F46E5"/>
  
  <!-- J letter -->
  <path d="M42 30H52V70C52 76.6 49.4 82 44.2 86C39 90 32.8 92 25.6 92C18.4 92 12.2 90 7 86L12 78C16 81.3 20.5 83 25.5 83C30.5 83 34.3 81.7 37 79C39.7 76.3 41 73 41 69V30H42Z" fill="white"/>
  
  <!-- Hourglass shape -->
  <path d="M70 30H105V40H95L80 64L95 88H105V98H70V88H80L65 64L80 40H70V30Z" fill="white"/>
</svg>